<svg xmlns="http://www.w3.org/2000/svg" xmlns:xlink="http://www.w3.org/1999/xlink" preserveAspectRatio="xMidYMid" width="18" height="32" viewBox="0 0 18 32">
  <defs>
    <style>
      .cls-1 {
        fill: #fff;
        fill-rule: evenodd;
      }
    </style>
  </defs>
  <path d="M9.039,32.000 C4.097,32.000 -0.008,27.993 -0.008,23.052 L-0.008,8.948 C-0.008,4.007 4.097,-0.000 9.039,-0.000 C13.980,-0.000 17.987,4.007 17.987,8.948 L17.987,23.052 C17.987,27.993 13.980,32.000 9.039,32.000 ZM15.987,8.948 C15.987,5.117 12.870,2.000 9.039,2.000 C5.208,2.000 1.992,5.117 1.992,8.948 L1.992,23.052 C1.992,26.883 5.208,30.000 9.039,30.000 C12.870,30.000 15.987,26.883 15.987,23.052 L15.987,8.948 ZM9.000,13.000 C8.448,13.000 8.000,12.552 8.000,12.000 L8.000,7.000 C8.000,6.448 8.448,6.000 9.000,6.000 C9.552,6.000 10.000,6.448 10.000,7.000 L10.000,12.000 C10.000,12.552 9.552,13.000 9.000,13.000 Z" class="cls-1"/>
</svg>
