<?xml version="1.0" encoding="utf-8"?>
<!-- Generator: Adobe Illustrator 21.1.0, SVG Export Plug-In . SVG Version: 6.00 Build 0)  -->
<svg version="1.1" id="Layer_1" xmlns="http://www.w3.org/2000/svg" xmlns:xlink="http://www.w3.org/1999/xlink" x="0px" y="0px"
	 viewBox="0 0 2500 2500" style="enable-background:new 0 0 2500 2500;" xml:space="preserve">
<style type="text/css">
	.st0{fill:#FFFFFF;}
</style>
<g>
	<path class="st0" d="M1739,102.1c271.3,115.1,470.6,302.3,607.8,551.6c-133.2,192-259.1,391.2-395.8,579.7
		C1882.2,854.4,1808.4,480.5,1739,102.1L1739,102.1z M0,1287V1213C7.2,1095,23.1,985.8,53.6,891.2
		c233.8-43.7,464.4-90.6,697.1-135.3c-217.3,326.6-432.5,655.4-651.2,980.6C44.2,1608.9,9,1461.1,0,1287z M2500,1213v74.1
		c-7.2,117.9-23.1,227.2-53.6,321.8c-237,43.1-469.8,90.3-704.8,135.3c219.7-324.3,441.3-660.2,661.4-975.5
		C2456.5,895.5,2491.3,1041.2,2500,1213z M556.7,1246.2c72.5,383.8,142.8,769.7,212,1156.8c-271.3-116-472.5-302.1-612.9-549
		C286.6,1648.5,422.8,1448.5,556.7,1246.2L556.7,1246.2z M2400.4,1726.2h5.1c-118.3,278.4-309.8,483.5-564.4,625.6
		c-174.4-113.9-350.9-233.4-523.5-352.4c-23.5-16.2-44.7-31.8-68.9-51.1C1635,1876.7,2017.1,1800.9,2400.4,1726.2L2400.4,1726.2z
		 M1213,0h74.1c121.9,8.4,237.8,22.7,332,58.7c44.7,226,85.3,456.1,130.2,681.8c-318.9-218.2-642.3-431.9-957.6-653.7
		C914.1,39.9,1051.5,7.9,1213,0z M1213,2500c-119.9-7.8-232.5-22.9-326.9-56.2c-39.6-231.1-82.6-458.7-125.1-686.9
		c320.7,216.5,644.7,429.5,960.2,651.2c-125.7,49.7-266.9,83.8-434.1,91.9C1262.3,2500,1237.7,2500,1213,2500L1213,2500z
		 M345.5,384.8c17.6-17.4,35.1-34.7,52.7-52.1c88.9-77.8,177.8-143.2,266.6-188c195.4,135.6,390.9,266.7,586.3,400.7
		c-385,75-770.1,153.1-1155.2,226.1C147.6,642.4,228.1,513.5,345.5,384.8L345.5,384.8z"/>
</g>
</svg>
