<svg xmlns="http://www.w3.org/2000/svg" xmlns:xlink="http://www.w3.org/1999/xlink" preserveAspectRatio="xMidYMid" width="100" height="100" viewBox="0 0 100 100">
  <defs>
    <style>
      .cls-1 {
        fill: #66a5ae;
      }

      .cls-2 {
        fill: #4b8490;
      }

      .cls-2, .cls-3 {
        fill-rule: evenodd;
      }

      .cls-3 {
        fill: #2c555d;
      }
    </style>
  </defs>
  <g>
    <rect width="100" height="100" class="cls-1"/>
    <path d="M100.000,100.000 L-0.000,-0.000 L-0.000,100.000 L100.000,100.000 Z" class="cls-2"/>
    <path d="M71.361,65.000 L70.716,62.168 L70.482,62.168 C69.844,63.171 68.936,63.958 67.757,64.531 C66.579,65.104 65.235,65.391 63.724,65.391 C61.107,65.391 59.154,64.740 57.865,63.438 C56.576,62.136 55.931,60.163 55.931,57.520 L55.931,43.398 L60.560,43.398 L60.560,56.719 C60.560,58.372 60.899,59.613 61.576,60.439 C62.253,61.266 63.314,61.680 64.759,61.680 C66.686,61.680 68.102,61.104 69.007,59.951 C69.912,58.799 70.365,56.869 70.365,54.160 L70.365,43.398 L74.974,43.398 L74.974,65.000 L71.361,65.000 ZM44.633,57.070 L33.715,57.070 L30.922,65.000 L26.000,65.000 L36.684,36.328 L41.762,36.328 L52.445,65.000 L47.484,65.000 L44.633,57.070 ZM40.727,45.273 C40.531,44.753 40.261,43.932 39.916,42.812 C39.571,41.693 39.333,40.872 39.203,40.352 C38.852,41.953 38.337,43.705 37.660,45.605 L35.082,53.047 L43.402,53.047 L40.727,45.273 Z" class="cls-3"/>
  </g>
</svg>
