<svg xmlns="http://www.w3.org/2000/svg" xmlns:xlink="http://www.w3.org/1999/xlink" preserveAspectRatio="xMidYMid" width="34" height="50" viewBox="0 0 34 50">
  <defs>
    <style>
      .cls-1 {
        fill: #fff;
        fill-rule: evenodd;
      }
    </style>
  </defs>
  <path d="M21.211,3.117 L21.219,3.117 M21.211,3.117 L17.563,21.678 L30.778,21.720 L12.789,46.883 L16.437,26.463 L3.222,26.419 L21.211,3.117 M21.213,-0.014 C21.125,-0.014 21.038,-0.011 20.953,-0.005 C20.382,0.040 20.004,0.225 19.555,0.517 C19.306,0.677 19.077,0.873 18.878,1.101 C18.819,1.168 18.763,1.238 18.711,1.310 L0.595,24.531 C-0.121,25.480 -0.225,26.734 0.324,27.781 C0.872,28.828 1.982,29.492 3.199,29.501 L12.531,29.567 L9.597,46.308 C9.318,47.746 10.111,49.181 11.505,49.758 C11.920,49.931 12.356,50.014 12.787,50.014 C13.804,50.014 14.639,49.553 15.265,48.722 L33.405,23.560 C34.121,22.610 34.225,21.355 33.676,20.309 C33.128,19.262 32.018,18.599 30.801,18.589 L21.469,18.574 L24.372,3.854 C24.432,3.617 24.464,3.371 24.464,3.117 C24.464,1.423 23.071,0.043 21.328,-0.012 C21.289,-0.014 21.251,-0.014 21.213,-0.014 L21.213,-0.014 Z" class="cls-1"/>
</svg>
