<svg xmlns="http://www.w3.org/2000/svg" xmlns:xlink="http://www.w3.org/1999/xlink" preserveAspectRatio="xMidYMid" width="30" height="50" viewBox="0 0 30 50">
  <defs>
    <style>
      .cls-1 {
        fill: #fff;
        fill-rule: evenodd;
      }
    </style>
  </defs>
  <path d="M29.850,49.087 C29.598,49.651 29.039,50.014 28.420,50.014 L15.131,50.014 L14.869,50.014 L1.580,50.014 C0.961,50.014 0.402,49.651 0.150,49.087 C-0.100,48.522 0.005,47.863 0.419,47.405 L8.745,37.559 L8.745,20.298 L7.704,20.298 C6.840,20.298 6.140,19.599 6.140,18.735 C6.140,17.872 6.840,17.173 7.704,17.173 L10.309,17.173 C11.173,17.173 11.872,17.872 11.872,18.735 L11.872,38.160 C11.872,38.547 11.729,38.920 11.469,39.207 L5.099,46.889 L14.869,46.889 L15.131,46.889 L24.901,46.889 L18.531,39.207 C18.271,38.920 18.128,38.547 18.128,38.160 L18.128,18.735 C18.128,17.872 18.827,17.173 19.691,17.173 L22.296,17.173 C23.160,17.173 23.860,17.872 23.860,18.735 C23.860,19.599 23.160,20.298 22.296,20.298 L21.255,20.298 L21.255,37.559 L29.581,47.405 C29.995,47.863 30.100,48.522 29.850,49.087 ZM23.623,10.979 C20.576,10.979 18.106,8.521 18.106,5.489 C18.106,2.457 20.576,0.000 23.623,0.000 C26.671,0.000 29.141,2.457 29.141,5.489 C29.141,8.521 26.671,10.979 23.623,10.979 ZM23.599,3.116 C22.296,3.116 21.237,4.170 21.237,5.465 C21.237,6.761 22.296,7.815 23.599,7.815 C24.901,7.815 25.961,6.761 25.961,5.465 C25.961,4.170 24.901,3.116 23.599,3.116 ZM13.436,15.617 C11.713,15.617 10.317,14.221 10.317,12.500 C10.317,10.780 11.713,9.383 13.436,9.383 C15.160,9.383 16.556,10.780 16.556,12.500 C16.556,14.221 15.160,15.617 13.436,15.617 Z" class="cls-1"/>
</svg>
