<svg xmlns="http://www.w3.org/2000/svg" xmlns:xlink="http://www.w3.org/1999/xlink" preserveAspectRatio="xMidYMid" width="8" height="15" viewBox="0 0 8 15">
  <defs>
    <style>
      .cls-1 {
        fill: #fff;
        fill-rule: evenodd;
      }
    </style>
  </defs>
  <path d="M5.476,0.639 C4.485,0.639 3.692,0.935 3.097,1.525 C2.502,2.116 2.204,2.946 2.204,4.018 L2.204,5.901 L0.014,5.901 L0.014,8.459 L2.204,8.459 L2.204,15.017 L4.832,15.017 L4.832,8.459 L7.013,8.459 L7.347,5.901 L4.832,5.901 L4.832,4.268 C4.832,3.854 4.917,3.543 5.089,3.335 C5.261,3.128 5.593,3.024 6.085,3.024 L7.433,3.024 L7.433,0.743 C6.970,0.674 6.317,0.639 5.476,0.639 L5.476,0.639 Z" class="cls-1"/>
</svg>
