<?xml version="1.0" encoding="utf-8"?>
<!-- Generator: Adobe Illustrator 21.1.0, SVG Export Plug-In . SVG Version: 6.00 Build 0)  -->
<svg version="1.1" id="Layer_1" xmlns="http://www.w3.org/2000/svg" xmlns:xlink="http://www.w3.org/1999/xlink" x="0px" y="0px"
	 viewBox="0 0 70 100" style="enable-background:new 0 0 70 100;" xml:space="preserve">
<style type="text/css">
	.st0{fill:#DCDBDB;}
</style>
<path class="st0" d="M35,41.8c2.7,0,3,0,4,0.1c1,0,1.5,0.2,1.9,0.3c0.4,0.2,0.8,0.4,1.1,0.7c0.3,0.3,0.6,0.7,0.7,1.1
	c0.1,0.4,0.3,0.9,0.3,1.9c0,1.1,0.1,1.4,0.1,4c0,2.7,0,3-0.1,4c0,1-0.2,1.5-0.3,1.9c-0.3,0.9-1,1.6-1.9,1.9
	c-0.4,0.1-0.9,0.3-1.9,0.3c-1.1,0-1.4,0.1-4,0.1c-2.7,0-3,0-4-0.1c-1,0-1.5-0.2-1.9-0.3c-0.4-0.2-0.8-0.4-1.1-0.8
	c-0.3-0.3-0.6-0.7-0.7-1.1c-0.1-0.4-0.3-0.9-0.3-1.9c0-1.1-0.1-1.4-0.1-4c0-2.7,0-3,0.1-4c0-1,0.2-1.5,0.3-1.9
	c0.2-0.4,0.4-0.8,0.7-1.1c0.3-0.3,0.7-0.6,1.1-0.7c0.4-0.1,0.9-0.3,1.9-0.3C32,41.8,32.3,41.8,35,41.8 M35,40c-2.7,0-3.1,0-4.1,0.1
	c-1.1,0-1.8,0.2-2.4,0.5c-0.7,0.3-1.3,0.6-1.8,1.2c-0.5,0.5-0.9,1.1-1.2,1.8c-0.2,0.6-0.4,1.4-0.5,2.4c0,1.1-0.1,1.4-0.1,4.1
	c0,2.7,0,3.1,0.1,4.1c0,1.1,0.2,1.8,0.5,2.4c0.3,0.7,0.6,1.3,1.2,1.8c0.5,0.5,1.1,0.9,1.8,1.2c0.6,0.2,1.4,0.4,2.4,0.5
	S32.3,60,35,60s3.1,0,4.1-0.1s1.8-0.2,2.4-0.5c1.3-0.5,2.4-1.6,2.9-2.9c0.2-0.6,0.4-1.4,0.5-2.4c0-1.1,0.1-1.4,0.1-4.1
	c0-2.7,0-3.1-0.1-4.1c0-1.1-0.2-1.8-0.5-2.4c-0.3-0.7-0.6-1.3-1.2-1.8c-0.5-0.5-1.1-0.9-1.8-1.2c-0.6-0.2-1.4-0.4-2.4-0.5
	C38.1,40,37.7,40,35,40L35,40L35,40z"/>
<path class="st0" d="M35,44.9c-2.8,0-5.1,2.3-5.1,5.1s2.3,5.1,5.1,5.1s5.1-2.3,5.1-5.1S37.8,44.9,35,44.9C35,44.9,35,44.9,35,44.9z
	 M35,53.3c-1.8,0-3.3-1.5-3.3-3.3c0-1.8,1.5-3.3,3.3-3.3s3.3,1.5,3.3,3.3S36.8,53.3,35,53.3L35,53.3z"/>
<circle class="st0" cx="40.3" cy="44.7" r="1.2"/>
</svg>
