<svg xmlns="http://www.w3.org/2000/svg" xmlns:xlink="http://www.w3.org/1999/xlink" preserveAspectRatio="xMidYMid" width="100" height="100" viewBox="0 0 100 100">
  <defs>
    <style>
      .cls-1 {
        fill: #455a6f;
      }

      .cls-2 {
        fill: #34495e;
      }

      .cls-2, .cls-3 {
        fill-rule: evenodd;
      }

      .cls-3 {
        fill: #182533;
      }
    </style>
  </defs>
  <g>
    <rect width="100" height="100" class="cls-1"/>
    <path d="M100.000,100.000 L-0.000,-0.000 L-0.000,100.000 L100.000,100.000 Z" class="cls-2"/>
    <path d="M67.154,47.480 C66.503,47.324 65.826,47.246 65.123,47.246 C63.287,47.246 61.799,47.845 60.660,49.043 C59.520,50.241 58.951,51.797 58.951,53.711 L58.951,65.000 L54.361,65.000 L54.361,43.398 L57.955,43.398 L58.560,47.207 L58.795,47.207 C59.510,45.918 60.445,44.896 61.597,44.141 C62.750,43.386 63.990,43.008 65.318,43.008 C66.242,43.008 67.004,43.073 67.603,43.203 L67.154,47.480 ZM32.770,36.445 L37.437,36.445 L37.437,60.996 L49.527,60.996 L49.527,65.000 L32.770,65.000 L32.770,36.445 Z" class="cls-3"/>
  </g>
</svg>
