<svg xmlns="http://www.w3.org/2000/svg" xmlns:xlink="http://www.w3.org/1999/xlink" preserveAspectRatio="xMidYMid" width="14" height="13" viewBox="0 0 14 13">
  <defs>
    <style>
      .cls-1 {
        fill: #fff;
        fill-rule: evenodd;
      }
    </style>
  </defs>
  <path d="M0.979,4.104 L0.979,12.667 L3.813,12.667 L3.813,4.104 L0.979,4.104 ZM3.556,0.402 C3.269,0.122 2.889,-0.017 2.413,-0.017 C1.938,-0.017 1.553,0.122 1.259,0.402 C0.964,0.681 0.816,1.034 0.816,1.460 C0.816,1.881 0.959,2.232 1.246,2.514 C1.532,2.797 1.910,2.938 2.379,2.938 L2.396,2.938 C2.877,2.938 3.265,2.797 3.560,2.514 C3.855,2.232 3.999,1.881 3.993,1.460 C3.988,1.034 3.842,0.681 3.556,0.402 ZM13.113,4.886 C12.517,4.233 11.730,3.906 10.751,3.906 C10.391,3.906 10.063,3.950 9.768,4.039 C9.473,4.129 9.224,4.254 9.021,4.415 C8.818,4.577 8.656,4.726 8.536,4.865 C8.416,5.003 8.298,5.164 8.184,5.349 L8.201,5.349 L8.201,4.104 L5.376,4.104 L5.385,4.519 C5.390,4.796 5.393,5.648 5.393,7.077 C5.393,8.505 5.387,10.369 5.376,12.667 L8.201,12.667 L8.201,7.889 C8.201,7.595 8.232,7.362 8.295,7.189 C8.416,6.895 8.597,6.649 8.841,6.450 C9.084,6.251 9.386,6.152 9.747,6.152 C10.239,6.152 10.601,6.324 10.833,6.666 C11.065,7.009 11.181,7.483 11.181,8.088 L11.181,12.667 L14.006,12.667 L14.006,7.759 C14.006,6.498 13.708,5.540 13.113,4.886 Z" class="cls-1"/>
</svg>
