<svg xmlns="http://www.w3.org/2000/svg" xmlns:xlink="http://www.w3.org/1999/xlink" preserveAspectRatio="xMidYMid" width="101" height="30" viewBox="0 0 101 30">
  <defs>
    <style>
      .cls-1 {
        fill: #fff;
        fill-rule: evenodd;
      }

      .cls-2 {
        fill: #eab42b;
      }
    </style>
  </defs>
  <g>
    <path d="M96.927,23.213 L96.207,21.573 L91.467,21.573 L90.787,23.213 L87.227,23.213 L93.847,9.373 C93.874,9.306 93.914,9.273 93.967,9.273 C94.020,9.273 94.060,9.306 94.087,9.373 L100.687,23.213 L96.927,23.213 ZM93.807,16.053 L92.587,18.933 L95.047,18.933 L93.807,16.053 ZM76.507,23.213 L73.267,18.273 L72.127,19.673 L72.127,23.213 L68.487,23.213 L68.487,9.613 L72.127,9.613 L72.127,15.253 L76.327,9.613 L80.267,9.613 L75.747,15.513 L80.807,23.213 L76.507,23.213 ZM18.868,9.613 L22.508,9.613 L22.508,20.153 L28.288,20.153 L28.288,23.213 L18.868,23.213 L18.868,9.613 ZM5.768,14.393 L7.568,14.993 C8.888,15.433 9.825,15.980 10.378,16.633 C10.931,17.286 11.208,18.113 11.208,19.113 C11.208,20.433 10.781,21.480 9.928,22.253 C9.075,23.026 7.781,23.413 6.048,23.413 C4.661,23.413 3.505,23.166 2.578,22.673 C1.651,22.180 0.928,21.586 0.408,20.893 L3.048,18.913 C3.848,19.900 4.795,20.393 5.888,20.393 C7.035,20.393 7.608,20.033 7.608,19.313 C7.608,19.033 7.505,18.810 7.298,18.643 C7.091,18.476 6.748,18.313 6.268,18.153 L4.668,17.613 C2.415,16.866 1.288,15.500 1.288,13.513 C1.288,12.233 1.738,11.236 2.638,10.523 C3.538,9.810 4.635,9.453 5.928,9.453 C7.995,9.453 9.541,10.053 10.568,11.253 L8.488,13.433 C7.861,12.780 7.075,12.453 6.128,12.453 C5.701,12.453 5.375,12.540 5.148,12.713 C4.921,12.886 4.808,13.113 4.808,13.393 C4.808,13.646 4.881,13.846 5.028,13.993 C5.175,14.140 5.421,14.273 5.768,14.393 Z" class="cls-1"/>
    <circle cx="48" cy="15" r="15" class="cls-2"/>
  </g>
</svg>
