<?xml version="1.0" encoding="utf-8"?>
<!-- Generator: Adobe Illustrator 21.1.0, SVG Export Plug-In . SVG Version: 6.00 Build 0)  -->
<svg version="1.1" id="Capa_1" xmlns="http://www.w3.org/2000/svg" xmlns:xlink="http://www.w3.org/1999/xlink" x="0px" y="0px"
	 viewBox="0 0 444.6 444.6" style="enable-background:new 0 0 444.6 444.6;" xml:space="preserve">
<style type="text/css">
	.st0{fill:#FFFFFF;}
</style>
<path id="XMLID_1333_" class="st0" d="M357.5,130.5c-13.3-25.9-36.5-45-55.2-60.4c-8.2-6.8-25.2-19.2-41.2-53V10c0-5.5-4.5-10-10-10
	c-5.5,0-10,4.5-10,10c0,5.6,0,324.4,0,329c-2.6-2.3-5.5-4.5-8.6-6.6c-17.2-11.5-39.9-17.8-63.9-17.8c-50.1,0-92.5,27.8-92.5,65
	c0,37.2,42.4,65,92.5,65c50.1,0,92.5-27.8,92.5-65V56.3c11.4,15.7,19.6,21.9,28.5,29.3c36.3,29.9,81.4,67.2,45.7,138.3
	c-2.5,4.9-0.5,10.9,4.5,13.4c4.9,2.5,10.9,0.5,13.4-4.5C371.9,195.6,373.4,161.2,357.5,130.5z M168.7,424.6
	c-39.3,0-72.5-20.6-72.5-45s33.2-45,72.5-45s72.5,20.6,72.5,45S208,424.6,168.7,424.6z"/>
</svg>
