<svg xmlns="http://www.w3.org/2000/svg" xmlns:xlink="http://www.w3.org/1999/xlink" preserveAspectRatio="xMidYMid" width="100" height="100" viewBox="0 0 100 100">
  <defs>
    <style>
      .cls-1 {
        fill: #3888bd;
      }

      .cls-2 {
        fill: #2777b4;
      }

      .cls-2, .cls-3 {
        fill-rule: evenodd;
      }

      .cls-3 {
        fill: #284b61;
      }
    </style>
  </defs>
  <g>
    <rect width="100" height="100" class="cls-1"/>
    <path d="M100.000,100.000 L-0.000,-0.000 L-0.000,100.000 L100.000,100.000 Z" class="cls-2"/>
    <path d="M62.087,46.562 C59.666,46.562 58.455,47.253 58.455,48.633 C58.455,49.310 58.770,49.883 59.402,50.352 C60.033,50.820 61.410,51.465 63.533,52.285 C65.317,52.975 66.612,53.607 67.420,54.180 C68.227,54.753 68.826,55.414 69.216,56.162 C69.607,56.911 69.802,57.806 69.802,58.848 C69.802,60.957 69.034,62.575 67.498,63.701 C65.961,64.828 63.760,65.391 60.896,65.391 C58.018,65.391 55.707,64.955 53.962,64.082 L53.962,60.117 C56.502,61.289 58.865,61.875 61.052,61.875 C63.878,61.875 65.291,61.022 65.291,59.316 C65.291,58.770 65.134,58.314 64.822,57.949 C64.509,57.585 63.995,57.207 63.279,56.816 C62.563,56.426 61.567,55.983 60.291,55.488 C57.803,54.525 56.121,53.561 55.242,52.598 C54.363,51.634 53.923,50.384 53.923,48.848 C53.923,46.999 54.669,45.563 56.160,44.541 C57.651,43.519 59.678,43.008 62.244,43.008 C64.783,43.008 67.185,43.522 69.451,44.551 L67.966,48.008 C65.635,47.044 63.676,46.562 62.087,46.562 ZM38.406,54.316 L35.437,54.316 L35.437,65.000 L30.770,65.000 L30.770,36.445 L38.992,36.445 C42.560,36.445 45.232,37.175 47.010,38.633 C48.787,40.091 49.676,42.240 49.676,45.078 C49.676,48.060 48.699,50.345 46.746,51.934 C44.793,53.522 42.013,54.316 38.406,54.316 ZM43.367,41.563 C42.364,40.755 40.802,40.352 38.680,40.352 L35.437,40.352 L35.437,50.391 L37.918,50.391 C40.314,50.391 42.071,49.974 43.191,49.141 C44.311,48.307 44.871,47.005 44.871,45.234 C44.871,43.594 44.370,42.370 43.367,41.563 Z" class="cls-3"/>
  </g>
</svg>
