<svg xmlns="http://www.w3.org/2000/svg" xmlns:xlink="http://www.w3.org/1999/xlink" preserveAspectRatio="xMidYMid" width="100" height="100" viewBox="0 0 100 100">
  <defs>
    <style>
      .cls-1 {
        fill: #99799e;
      }

      .cls-2 {
        fill: #7f5f86;
      }

      .cls-2, .cls-3 {
        fill-rule: evenodd;
      }

      .cls-3 {
        fill: #4d3352;
      }
    </style>
  </defs>
  <g>
    <rect width="100" height="100" class="cls-1"/>
    <path d="M100.000,100.000 L-0.000,-0.000 L-0.000,100.000 L100.000,100.000 Z" class="cls-2"/>
    <path d="M68.084,47.480 C67.432,47.324 66.755,47.246 66.052,47.246 C64.216,47.246 62.729,47.845 61.589,49.043 C60.450,50.241 59.880,51.797 59.880,53.711 L59.880,65.000 L55.291,65.000 L55.291,43.398 L58.884,43.398 L59.490,47.207 L59.724,47.207 C60.440,45.918 61.375,44.896 62.527,44.141 C63.679,43.386 64.920,43.008 66.248,43.008 C67.172,43.008 67.934,43.073 68.533,43.203 L68.084,47.480 ZM38.406,54.316 L35.437,54.316 L35.437,65.000 L30.770,65.000 L30.770,36.445 L38.992,36.445 C42.560,36.445 45.232,37.175 47.010,38.633 C48.787,40.091 49.676,42.240 49.676,45.078 C49.676,48.060 48.699,50.345 46.746,51.934 C44.793,53.522 42.013,54.316 38.406,54.316 ZM43.367,41.562 C42.364,40.755 40.802,40.352 38.680,40.352 L35.437,40.352 L35.437,50.391 L37.918,50.391 C40.314,50.391 42.071,49.974 43.191,49.141 C44.311,48.307 44.871,47.005 44.871,45.234 C44.871,43.594 44.370,42.370 43.367,41.562 Z" class="cls-3"/>
  </g>
</svg>
