<svg xmlns="http://www.w3.org/2000/svg" xmlns:xlink="http://www.w3.org/1999/xlink" preserveAspectRatio="xMidYMid" width="265" height="116" viewBox="0 0 265 116">
  <defs>
    <style>
      .cls-1 {
        fill: #fff;
        fill-rule: evenodd;
      }
    </style>
  </defs>
  <path d="M262.795,37.545 C261.793,38.427 260.670,39.281 259.424,40.106 C258.179,40.932 256.890,41.652 255.559,42.266 C254.227,42.880 253.011,43.224 251.909,43.294 C251.095,43.347 250.311,43.120 249.557,42.616 C248.803,42.112 248.394,41.356 248.329,40.350 C248.261,39.297 248.519,38.258 249.103,37.234 C249.687,36.211 250.410,35.299 251.272,34.497 C252.134,33.697 253.042,33.037 253.995,32.518 C254.947,32.001 255.758,31.720 256.430,31.677 C256.956,31.643 257.323,31.740 257.531,31.967 C257.737,32.195 257.852,32.476 257.873,32.810 C257.901,33.242 257.692,33.749 257.249,34.330 C256.805,34.912 256.219,35.526 255.492,36.174 C254.764,36.823 253.927,37.465 252.983,38.103 C252.037,38.741 251.104,39.354 250.179,39.942 C250.219,40.565 250.419,41.058 250.779,41.419 C251.139,41.781 251.773,41.932 252.684,41.874 C253.498,41.821 254.453,41.532 255.550,41.004 C256.646,40.477 257.736,39.854 258.821,39.135 C259.904,38.416 260.937,37.640 261.918,36.807 C262.898,35.976 263.658,35.253 264.196,34.641 L264.965,35.385 C264.520,35.944 263.796,36.663 262.795,37.545 ZM254.600,35.762 C255.691,34.779 256.218,33.999 256.181,33.424 C256.163,33.137 255.962,33.005 255.579,33.030 C255.004,33.067 254.440,33.272 253.887,33.644 C253.333,34.016 252.810,34.483 252.317,35.043 C251.823,35.605 251.406,36.209 251.063,36.855 C250.720,37.503 250.472,38.145 250.320,38.779 C252.082,37.753 253.509,36.747 254.600,35.762 ZM236.725,40.518 C235.766,40.580 234.869,40.457 234.031,40.150 C233.193,39.843 232.467,39.373 231.849,38.739 C231.511,39.482 231.088,40.207 230.581,40.913 C230.073,41.619 229.489,42.258 228.829,42.829 C228.167,43.401 227.463,43.866 226.718,44.227 C225.972,44.587 225.215,44.793 224.449,44.842 C223.012,44.934 222.248,44.285 222.159,42.897 C222.095,41.891 222.552,40.587 223.531,38.985 C224.511,37.383 226.263,35.659 228.790,33.813 C229.234,33.977 229.469,34.274 229.497,34.705 C229.506,34.849 229.444,34.997 229.309,35.150 C228.938,35.367 228.445,35.736 227.829,36.255 C227.213,36.776 226.603,37.393 226.000,38.105 C225.396,38.817 224.880,39.572 224.450,40.369 C224.021,41.166 223.831,41.972 223.884,42.786 C223.924,43.409 224.279,43.698 224.950,43.655 C225.524,43.618 226.124,43.400 226.747,42.999 C227.371,42.598 227.963,42.091 228.525,41.478 C229.087,40.864 229.585,40.195 230.020,39.470 C230.453,38.745 230.744,38.016 230.889,37.285 C230.718,36.864 230.569,36.417 230.442,35.943 C230.315,35.471 230.233,34.923 230.193,34.300 C230.183,34.156 230.208,33.974 230.266,33.754 C230.324,33.534 230.472,33.416 230.712,33.401 C231.190,33.370 231.606,33.657 231.958,34.259 C232.309,34.862 232.498,35.378 232.526,35.809 C232.538,36.001 232.537,36.170 232.523,36.315 C232.507,36.460 232.482,36.631 232.447,36.825 C232.837,37.665 233.442,38.276 234.260,38.656 C235.078,39.036 236.014,39.193 237.068,39.125 C238.169,39.054 239.269,38.756 240.365,38.228 C241.461,37.701 242.412,36.954 243.216,35.989 L243.985,36.733 C242.953,37.906 241.797,38.810 240.516,39.445 C239.233,40.081 237.970,40.438 236.725,40.518 ZM223.253,4.876 C222.346,6.474 221.243,8.396 219.944,10.644 C218.646,12.892 217.247,15.267 215.748,17.768 C214.249,20.270 212.741,22.807 211.223,25.382 C209.704,27.957 208.296,30.367 206.998,32.615 C206.654,33.263 206.255,33.974 205.800,34.749 C205.345,35.524 204.927,36.320 204.547,37.138 C204.166,37.956 203.844,38.747 203.581,39.509 C203.316,40.272 203.205,40.964 203.245,41.586 C203.295,42.353 203.596,42.947 204.153,43.368 C204.709,43.790 205.658,43.957 206.999,43.870 C207.862,43.815 208.808,43.574 209.839,43.147 C210.869,42.720 211.895,42.210 212.915,41.615 C213.934,41.020 214.878,40.359 215.746,39.629 C216.612,38.900 217.315,38.230 217.853,37.618 L218.622,38.362 C218.177,38.920 217.462,39.591 216.479,40.376 C215.494,41.160 214.401,41.916 213.197,42.643 C211.993,43.369 210.735,44.004 209.424,44.544 C208.111,45.086 206.904,45.392 205.803,45.462 C204.269,45.561 203.208,45.329 202.620,44.765 C202.030,44.202 201.708,43.489 201.653,42.627 C201.616,42.052 201.660,41.436 201.786,40.778 C201.912,40.121 202.075,39.473 202.275,38.835 C202.316,38.736 201.941,39.085 201.152,39.881 C200.361,40.678 199.409,41.580 198.295,42.590 C197.181,43.599 196.004,44.541 194.761,45.414 C193.519,46.288 192.466,46.752 191.604,46.807 C190.598,46.872 190.060,46.353 189.989,45.252 C189.943,44.533 190.129,43.680 190.546,42.691 C190.964,41.702 191.622,40.710 192.519,39.714 C193.418,38.718 194.546,37.769 195.907,36.863 C197.267,35.958 198.894,35.253 200.786,34.746 C200.929,34.737 201.099,34.762 201.296,34.821 C201.491,34.881 201.602,35.103 201.627,35.486 C201.652,35.870 201.309,36.155 200.600,36.345 C199.459,36.563 198.335,37.032 197.227,37.752 C196.119,38.473 195.123,39.258 194.240,40.109 C193.357,40.959 192.653,41.798 192.129,42.625 C191.605,43.452 191.358,44.106 191.389,44.585 C191.423,45.112 191.776,45.353 192.446,45.310 C192.925,45.280 193.605,44.996 194.483,44.458 C195.362,43.921 196.404,43.097 197.607,41.985 C198.810,40.874 200.113,39.432 201.514,37.657 C202.915,35.884 204.378,33.770 205.904,31.315 C207.600,28.513 209.720,24.841 212.267,20.300 C214.813,15.760 217.791,10.447 221.200,4.359 C221.937,3.110 222.530,2.230 222.978,1.719 C223.426,1.210 223.770,0.947 224.010,0.932 C224.154,0.922 224.277,0.987 224.383,1.124 C224.488,1.262 224.545,1.402 224.554,1.546 C224.570,1.786 224.486,2.164 224.303,2.680 C224.119,3.197 223.770,3.930 223.253,4.876 ZM159.280,46.214 C157.958,46.973 156.582,47.639 155.152,48.211 C153.721,48.783 152.432,49.107 151.282,49.181 C150.420,49.236 149.701,49.102 149.128,48.778 C148.553,48.455 148.241,47.886 148.188,47.071 C148.161,46.640 148.214,46.180 148.352,45.690 C148.489,45.201 148.641,44.758 148.808,44.362 C148.849,44.263 148.431,44.494 147.554,45.056 C146.676,45.617 145.658,46.260 144.503,46.983 C143.347,47.707 142.212,48.382 141.098,49.006 C139.983,49.630 139.163,49.960 138.636,49.993 C137.917,50.040 137.537,49.727 137.494,49.057 C137.460,48.530 137.621,47.847 137.975,47.006 C138.330,46.166 138.722,45.347 139.152,44.549 C139.581,43.753 139.968,43.042 140.314,42.418 C140.658,41.795 140.805,41.461 140.754,41.416 C140.611,41.425 140.425,41.534 140.198,41.740 C139.970,41.948 139.710,42.193 139.416,42.476 C139.121,42.760 138.827,43.055 138.535,43.362 C138.241,43.670 137.983,43.928 137.755,44.134 L136.102,44.240 C136.374,43.982 136.623,43.738 136.848,43.507 C137.075,43.276 137.323,43.032 137.595,42.773 C137.775,42.570 138.033,42.289 138.371,41.930 C138.708,41.572 139.083,41.224 139.494,40.884 C139.905,40.545 140.319,40.253 140.736,40.010 C141.154,39.767 141.529,39.635 141.865,39.613 C142.440,39.576 142.754,39.965 142.806,40.779 C142.821,41.019 142.669,41.450 142.348,42.071 C142.027,42.694 141.662,43.378 141.253,44.126 C140.844,44.873 140.482,45.594 140.166,46.288 C139.849,46.982 139.704,47.520 139.728,47.903 C139.741,48.095 139.819,48.186 139.962,48.177 C140.201,48.161 140.635,47.978 141.261,47.624 C141.888,47.272 142.593,46.830 143.377,46.298 C144.160,45.767 144.977,45.197 145.828,44.589 C146.679,43.982 147.472,43.414 148.208,42.885 C148.943,42.358 149.577,41.920 150.108,41.573 C150.638,41.226 150.951,41.050 151.048,41.043 C151.239,41.031 151.391,41.154 151.504,41.411 C151.617,41.669 151.678,41.869 151.687,42.012 C151.700,42.204 151.621,42.486 151.453,42.857 C151.284,43.229 151.095,43.650 150.885,44.120 C150.674,44.591 150.487,45.060 150.326,45.527 C150.163,45.995 150.094,46.420 150.119,46.803 C150.181,47.762 150.833,48.200 152.080,48.120 C152.942,48.064 153.970,47.782 155.164,47.272 C156.357,46.763 157.533,46.159 158.691,45.459 C159.847,44.760 160.942,44.004 161.972,43.191 C163.002,42.380 163.786,41.668 164.324,41.056 L165.093,41.801 C164.648,42.359 163.898,43.044 162.844,43.857 C161.790,44.671 160.602,45.456 159.280,46.214 ZM130.298,17.341 C128.565,19.954 126.600,22.677 124.402,25.512 C122.203,28.347 120.019,31.049 117.852,33.616 C115.683,36.185 113.620,38.505 111.661,40.579 C109.702,42.653 108.110,44.259 106.884,45.395 C106.559,46.331 106.311,47.140 106.138,47.824 C105.966,48.509 105.894,49.066 105.921,49.498 C105.943,49.833 106.022,50.117 106.156,50.348 C106.292,50.581 106.456,50.690 106.646,50.678 C107.221,50.641 108.118,50.186 109.337,49.314 C110.554,48.442 111.791,47.474 113.046,46.407 C114.300,45.341 115.452,44.376 116.503,43.515 C117.554,42.654 118.175,42.217 118.367,42.205 C118.558,42.192 118.705,42.232 118.808,42.321 C119.059,42.497 119.193,42.705 119.208,42.944 C119.227,43.232 119.139,43.551 118.945,43.899 C118.751,44.249 118.546,44.623 118.332,45.021 C118.116,45.420 117.926,45.829 117.761,46.248 C117.595,46.668 117.527,47.093 117.555,47.524 C117.607,48.339 117.822,48.877 118.200,49.142 C118.577,49.406 119.029,49.521 119.557,49.487 C120.419,49.432 121.365,49.191 122.396,48.764 C123.426,48.337 124.452,47.827 125.472,47.232 C126.491,46.637 127.435,45.976 128.303,45.246 C129.169,44.517 129.872,43.847 130.410,43.235 L131.179,43.979 C130.734,44.538 130.019,45.208 129.036,45.993 C128.052,46.777 126.958,47.533 125.755,48.260 C124.550,48.986 123.292,49.621 121.981,50.161 C120.668,50.703 119.462,51.009 118.360,51.079 C117.401,51.141 116.710,50.861 116.286,50.239 C115.861,49.617 115.623,48.899 115.570,48.084 C115.531,47.462 115.564,46.858 115.671,46.274 C115.665,46.179 115.613,46.133 115.518,46.139 C115.326,46.152 114.818,46.473 113.992,47.103 C113.167,47.733 112.248,48.418 111.238,49.156 C110.227,49.895 109.249,50.582 108.305,51.220 C107.359,51.858 106.671,52.191 106.240,52.219 C105.044,52.296 104.398,51.616 104.306,50.179 C104.232,49.029 104.506,47.485 105.126,45.544 C105.748,43.605 106.618,41.444 107.740,39.064 C108.861,36.683 110.166,34.146 111.652,31.453 C113.139,28.760 114.711,26.098 116.370,23.466 C118.028,20.834 119.719,18.321 121.441,15.926 C123.163,13.531 124.830,11.404 126.442,9.544 C128.054,7.685 129.521,6.196 130.845,5.076 C132.168,3.958 133.284,3.369 134.195,3.310 C134.577,3.286 134.958,3.394 135.334,3.634 C135.710,3.875 135.919,4.330 135.963,5.000 C136.043,6.246 135.551,7.961 134.489,10.145 C133.427,12.331 132.030,14.729 130.298,17.341 ZM133.689,4.425 C132.874,4.477 131.789,5.173 130.432,6.510 C129.075,7.848 127.587,9.591 125.970,11.739 C124.352,13.888 122.657,16.329 120.885,19.064 C119.113,21.800 117.405,24.603 115.762,27.473 C114.118,30.346 112.590,33.137 111.177,35.849 C109.764,38.561 108.622,41.003 107.752,43.175 C109.422,41.481 111.256,39.523 113.255,37.302 C115.252,35.082 117.255,32.753 119.263,30.315 C121.271,27.877 123.228,25.407 125.136,22.903 C127.043,20.400 128.719,18.032 130.163,15.798 C131.607,13.566 132.751,11.544 133.597,9.734 C134.442,7.924 134.832,6.492 134.764,5.438 C134.718,4.719 134.359,4.382 133.689,4.425 ZM92.161,49.804 C91.202,49.866 90.305,49.743 89.468,49.436 C88.630,49.129 87.903,48.660 87.285,48.025 C86.947,48.768 86.525,49.493 86.018,50.199 C85.510,50.906 84.925,51.544 84.265,52.115 C83.604,52.688 82.900,53.152 82.154,53.513 C81.409,53.874 80.652,54.079 79.885,54.128 C78.448,54.220 77.685,53.572 77.596,52.183 C77.531,51.177 77.989,49.874 78.968,48.271 C79.947,46.669 81.700,44.946 84.227,43.099 C84.671,43.263 84.906,43.561 84.934,43.992 C84.943,44.135 84.880,44.284 84.746,44.437 C84.374,44.653 83.882,45.022 83.266,45.542 C82.650,46.063 82.040,46.679 81.436,47.391 C80.833,48.104 80.317,48.858 79.886,49.655 C79.457,50.452 79.268,51.258 79.320,52.072 C79.360,52.695 79.716,52.985 80.386,52.942 C80.961,52.905 81.560,52.686 82.184,52.285 C82.807,51.884 83.399,51.377 83.962,50.764 C84.523,50.151 85.022,49.482 85.456,48.756 C85.890,48.031 86.180,47.303 86.326,46.572 C86.155,46.150 86.005,45.703 85.879,45.230 C85.752,44.758 85.669,44.209 85.629,43.586 C85.620,43.443 85.644,43.261 85.702,43.040 C85.760,42.820 85.908,42.703 86.149,42.687 C86.627,42.656 87.042,42.943 87.394,43.545 C87.745,44.148 87.935,44.665 87.963,45.096 C87.975,45.288 87.974,45.456 87.959,45.601 C87.944,45.746 87.919,45.917 87.884,46.111 C88.274,46.952 88.879,47.562 89.697,47.942 C90.515,48.323 91.450,48.479 92.505,48.411 C93.606,48.341 94.705,48.042 95.802,47.514 C96.898,46.987 97.849,46.241 98.652,45.275 L99.422,46.019 C98.390,47.192 97.234,48.096 95.952,48.731 C94.670,49.367 93.406,49.724 92.161,49.804 ZM76.488,17.515 C74.950,20.909 73.103,24.730 70.948,28.981 C68.791,33.232 66.423,37.726 63.841,42.461 C67.422,41.317 71.031,40.581 74.666,40.250 C75.339,40.255 75.681,40.329 75.690,40.473 C75.718,40.904 75.425,41.224 74.814,41.431 C74.201,41.640 73.704,41.755 73.321,41.780 C71.644,41.887 69.942,42.153 68.214,42.577 C66.484,43.001 64.727,43.534 62.941,44.178 C60.613,48.368 58.180,52.613 55.643,56.912 C53.105,61.211 50.482,65.492 47.774,69.755 C49.291,69.416 50.762,68.925 52.188,68.281 C53.614,67.636 54.917,66.962 56.099,66.262 C57.280,65.560 58.307,64.881 59.179,64.224 C60.050,63.566 60.691,63.056 61.101,62.694 C61.648,62.226 62.160,61.977 62.640,61.946 C62.927,61.927 63.074,61.965 63.080,62.062 C63.083,62.109 62.994,62.235 62.816,62.439 C62.725,62.541 62.612,62.644 62.475,62.750 C62.062,63.065 61.385,63.578 60.445,64.287 C59.505,64.997 58.363,65.756 57.020,66.563 C55.677,67.371 54.175,68.141 52.515,68.873 C50.854,69.604 49.099,70.175 47.250,70.582 C43.541,76.495 39.791,82.136 35.999,87.502 C32.207,92.868 28.532,97.614 24.973,101.738 C21.414,105.863 18.068,109.180 14.935,111.690 C11.802,114.200 9.061,115.531 6.713,115.681 C4.511,115.823 2.886,115.433 1.841,114.515 C0.796,113.596 0.216,112.250 0.102,110.478 C-0.048,108.131 0.602,105.155 2.054,101.551 C3.507,97.946 5.576,94.038 8.263,89.825 C10.951,85.612 14.159,81.269 17.888,76.797 C21.617,72.324 25.681,68.023 30.082,63.893 C29.081,61.793 28.494,59.401 28.322,56.719 C28.107,53.367 28.485,49.710 29.457,45.752 C30.430,41.793 31.893,37.803 33.847,33.782 C35.801,29.760 38.218,25.842 41.100,22.024 C43.981,18.208 47.249,14.800 50.905,11.799 C54.560,8.799 58.537,6.319 62.837,4.359 C67.135,2.399 71.680,1.265 76.471,0.958 C77.572,0.887 78.618,1.072 79.609,1.514 C80.599,1.955 81.134,2.799 81.214,4.044 C81.270,4.906 80.879,6.518 80.046,8.881 C79.211,11.243 78.025,14.122 76.488,17.515 ZM45.349,70.199 C47.968,66.038 50.514,61.870 52.987,57.696 C55.461,53.521 57.840,49.388 60.127,45.297 C55.396,47.285 50.663,49.970 45.926,53.351 C41.189,56.733 36.597,60.491 32.149,64.626 C33.236,66.576 34.822,68.049 36.906,69.046 C38.990,70.042 41.637,70.438 44.846,70.231 L45.349,70.199 ZM19.240,78.189 C15.576,82.537 12.406,86.733 9.731,90.777 C7.058,94.820 4.988,98.536 3.521,101.926 C2.056,105.314 1.392,108.087 1.530,110.242 C1.622,111.680 2.127,112.789 3.043,113.572 C3.959,114.354 5.327,114.688 7.147,114.571 C8.489,114.485 10.014,113.882 11.721,112.762 C13.429,111.643 15.278,110.105 17.268,108.149 C19.260,106.193 21.372,103.881 23.605,101.213 C25.839,98.544 28.126,95.607 30.470,92.403 C32.813,89.197 35.191,85.786 37.605,82.168 C40.017,78.550 42.424,74.835 44.825,71.026 L44.250,71.063 C41.089,71.266 38.418,70.872 36.238,69.883 C34.058,68.892 32.355,67.474 31.131,65.629 C26.868,69.655 22.905,73.841 19.240,78.189 ZM79.134,2.554 C78.698,2.126 77.880,1.949 76.684,2.026 C72.324,2.306 68.127,3.430 64.094,5.396 C60.059,7.363 56.275,9.867 52.744,12.907 C49.211,15.948 46.004,19.377 43.123,23.193 C40.241,27.010 37.812,30.929 35.834,34.953 C33.856,38.976 32.355,42.944 31.332,46.858 C30.309,50.772 29.900,54.334 30.107,57.542 C30.227,59.410 30.605,61.190 31.243,62.880 C35.880,58.686 40.722,54.889 45.771,51.486 C50.819,48.084 55.949,45.397 61.162,43.426 C63.878,38.539 66.392,33.880 68.705,29.450 C71.018,25.021 73.010,21.046 74.685,17.522 C76.358,14.000 77.649,11.067 78.557,8.724 C79.464,6.382 79.894,4.827 79.844,4.060 C79.807,3.485 79.570,2.984 79.134,2.554 Z" class="cls-1"/>
</svg>
