<svg xmlns="http://www.w3.org/2000/svg" xmlns:xlink="http://www.w3.org/1999/xlink" preserveAspectRatio="xMidYMid" width="14" height="12" viewBox="0 0 14 12">
  <defs>
    <style>
      .cls-1 {
        fill: #fff;
        fill-rule: evenodd;
      }
    </style>
  </defs>
  <path d="M12.063,1.952 C12.664,1.589 13.070,1.076 13.282,0.414 C12.732,0.742 12.145,0.967 11.522,1.088 C10.972,0.500 10.296,0.206 9.495,0.206 C8.728,0.206 8.074,0.478 7.533,1.023 C6.992,1.567 6.722,2.225 6.722,2.997 C6.722,3.204 6.744,3.418 6.790,3.637 C5.657,3.579 4.593,3.292 3.600,2.777 C2.607,2.261 1.764,1.574 1.071,0.716 C0.819,1.148 0.694,1.618 0.694,2.124 C0.694,2.603 0.805,3.046 1.028,3.455 C1.252,3.864 1.552,4.195 1.930,4.449 C1.484,4.431 1.066,4.313 0.676,4.094 L0.676,4.129 C0.676,4.803 0.887,5.395 1.308,5.905 C1.728,6.414 2.259,6.736 2.900,6.868 C2.660,6.932 2.417,6.963 2.171,6.963 C2.010,6.963 1.836,6.949 1.647,6.920 C1.824,7.479 2.150,7.938 2.626,8.298 C3.101,8.658 3.639,8.844 4.240,8.855 C3.232,9.650 2.085,10.048 0.797,10.048 C0.550,10.048 0.327,10.036 0.127,10.013 C1.415,10.849 2.835,11.266 4.386,11.266 C5.370,11.266 6.295,11.109 7.159,10.795 C8.024,10.481 8.762,10.061 9.375,9.534 C9.987,9.007 10.515,8.400 10.959,7.715 C11.403,7.029 11.733,6.314 11.951,5.568 C12.168,4.822 12.277,4.074 12.277,3.325 C12.277,3.164 12.274,3.043 12.269,2.963 C12.812,2.565 13.276,2.084 13.660,1.520 C13.127,1.750 12.595,1.894 12.063,1.952 L12.063,1.952 Z" class="cls-1"/>
</svg>
