<svg xmlns="http://www.w3.org/2000/svg" xmlns:xlink="http://www.w3.org/1999/xlink" preserveAspectRatio="xMidYMid" width="44" height="30" viewBox="0 0 44 30">
  <defs>
    <style>
      .cls-1 {
        fill: #fff;
        fill-rule: evenodd;
      }
    </style>
  </defs>
  <path d="M41.239,21.750 L41.239,21.818 L42.625,21.818 C43.384,21.818 44.000,22.429 44.000,23.182 L44.000,28.636 C44.000,29.389 43.384,30.000 42.625,30.000 L37.125,30.000 C36.366,30.000 35.750,29.389 35.750,28.636 L35.750,23.182 C35.750,22.429 36.366,21.818 37.125,21.818 L38.489,21.818 L38.489,21.750 C38.489,14.148 33.224,7.760 26.125,5.938 L26.125,6.818 C26.125,7.571 25.509,8.182 24.750,8.182 L19.250,8.182 C18.491,8.182 17.875,7.571 17.875,6.818 L17.875,5.938 C10.775,7.759 5.511,14.147 5.511,21.750 L5.511,21.818 L6.875,21.818 C7.634,21.818 8.250,22.429 8.250,23.182 L8.250,28.636 C8.250,29.389 7.634,30.000 6.875,30.000 L1.375,30.000 C0.616,30.000 -0.000,29.389 -0.000,28.636 L-0.000,23.182 C-0.000,22.429 0.616,21.818 1.375,21.818 L2.761,21.818 L2.761,21.750 C2.761,14.834 6.502,8.791 12.074,5.455 L5.119,5.455 C4.642,6.266 3.765,6.818 2.750,6.818 C1.231,6.818 -0.000,5.597 -0.000,4.091 C-0.000,2.585 1.231,1.364 2.750,1.364 C3.765,1.364 4.642,1.915 5.119,2.727 L17.875,2.727 L17.875,1.364 C17.875,0.610 18.491,-0.000 19.250,-0.000 L24.750,-0.000 C25.509,-0.000 26.125,0.610 26.125,1.364 L26.125,2.727 L38.881,2.727 C39.358,1.915 40.235,1.364 41.250,1.364 C42.769,1.364 44.000,2.585 44.000,4.091 C44.000,5.597 42.769,6.818 41.250,6.818 C40.235,6.818 39.358,6.266 38.881,5.455 L31.924,5.455 C37.497,8.791 41.239,14.834 41.239,21.750 ZM38.500,27.273 L41.250,27.273 L41.250,24.545 L38.500,24.545 L38.500,27.273 ZM5.500,24.545 L2.750,24.545 L2.750,27.273 L5.500,27.273 L5.500,24.545 ZM23.375,2.727 L20.625,2.727 L20.625,5.455 L23.375,5.455 L23.375,2.727 Z" class="cls-1"/>
</svg>
